<?xml version="1.0" encoding="UTF-8" standalone="no"?>
<svg
   version="1.0"
   width="600.000000pt"
   height="600.000000pt"
   viewBox="0 0 600.000000 600.000000"
   preserveAspectRatio="xMidYMid meet"
   id="svg119"
   sodipodi:docname="logo2.svg"
   inkscape:version="1.1.2 (b8e25be833, 2022-02-05)"
   xmlns:inkscape="http://www.inkscape.org/namespaces/inkscape"
   xmlns:sodipodi="http://sodipodi.sourceforge.net/DTD/sodipodi-0.dtd"
   xmlns="http://www.w3.org/2000/svg"
   xmlns:svg="http://www.w3.org/2000/svg">
  <defs
     id="defs123" />
  <sodipodi:namedview
     id="namedview121"
     pagecolor="#ffffff"
     bordercolor="#666666"
     borderopacity="1.0"
     inkscape:pageshadow="2"
     inkscape:pageopacity="0.42745098"
     inkscape:pagecheckerboard="0"
     inkscape:document-units="pt"
     showgrid="false"
     inkscape:zoom="0.97375"
     inkscape:cx="480.1027"
     inkscape:cy="395.89217"
     inkscape:window-width="1920"
     inkscape:window-height="1001"
     inkscape:window-x="-9"
     inkscape:window-y="-9"
     inkscape:window-maximized="1"
     inkscape:current-layer="svg119" />
  <metadata
     id="metadata67">
Created by potrace 1.10, written by Peter Selinger 2001-2011
</metadata>
  <g
     transform="matrix(0.1,0,0,-0.10733043,0,643.94508)"
     fill="#444444"
     stroke="none"
     id="g117">
    <path
       d="M 2586.5539,5968.4927 C 1709.4234,5840.3972 948.66163,5381.5054 489.00446,4703.0214 398.81855,4572.1106 294.08654,4376.4482 230.08364,4223.0151 212.62831,4180.7858 192.26375,4132.9259 184.9907,4117.4418 150.08002,4041.429 96.259405,3831.6902 55.530288,3617.7285 29.347285,3482.5946 20.619616,3068.7475 39.529563,2920.9451 104.98707,2407.1553 280.99504,1980.6393 599.55491,1569.6075 c 167.2803,-216.7771 551.29769,-560.2421 725.85099,-647.5159 29.0923,-15.48415 53.8207,-32.37585 53.8207,-38.00638 0,-7.0383 14.5462,-11.26117 30.5468,-11.26117 30.5468,0 30.5468,1.40766 -5.8185,33.7834 -20.3644,18.29937 -43.6382,36.59873 -52.3659,38.00639 -85.8221,30.96819 -583.29917,530.68146 -583.29917,588.39496 0,8.4458 -5.81844,15.484 -11.6369,15.484 -7.27305,0 -20.36455,14.0765 -30.54683,32.3758 -8.72767,16.8917 -29.09223,50.6751 -45.09294,73.1975 -36.36529,54.898 -174.55337,325.1656 -174.55337,342.0572 0,7.0384 -10.18228,32.3759 -21.81917,53.4906 -11.63689,22.5222 -21.81917,54.8981 -21.81917,71.7897 0,16.8917 -5.81844,33.7835 -13.0915,38.0065 -7.27306,5.6305 -17.45533,35.191 -23.27377,68.9744 -5.81846,32.3759 -17.45535,71.7898 -24.7284,85.8663 -8.72767,15.4841 -21.81917,66.1592 -29.09222,112.6114 -34.91068,226.6306 -40.72912,340.6497 -32.00145,548.981 16.00072,384.2865 88.73128,679.8917 242.92009,986.7579 55.27523,109.7962 194.9179,344.8725 213.82786,358.949 5.81844,4.2229 43.63833,52.0828 85.82206,105.5732 158.55268,202.7007 458.20258,457.4841 706.94118,601.0638 197.8271,115.4267 510.5685,242.1145 705.4864,285.7516 52.366,12.6687 117.8235,28.1528 145.4612,35.191 116.3688,30.9681 314.196,47.8599 567.2983,47.8599 349.1068,1.4077 565.8439,-30.9682 887.313,-132.3185 110.5504,-33.7834 161.4618,-54.8981 347.6521,-136.5414 62.5482,-28.1529 276.3761,-152.0254 381.1081,-222.4077 330.1968,-222.4076 631.3013,-574.3184 826.2192,-965.6432 32.0015,-67.5669 59.6392,-126.6879 59.6392,-132.3185 0,-5.6306 8.7275,-29.5606 20.3644,-53.4904 18.91,-39.414 55.2753,-157.6561 96.0044,-305.4586 56.7299,-202.7007 74.1852,-655.9618 36.3653,-899.4841 -45.0929,-289.9745 -173.0987,-647.5159 -317.1053,-881.1847 -165.8256,-268.8598 -468.3848,-584.172 -708.3957,-739.01271 -18.9099,-11.26117 -43.6384,-30.96819 -56.7299,-43.63691 -13.0915,-12.66883 -36.3652,-26.74532 -52.3659,-33.78351 -27.6377,-11.26117 -27.6377,-11.26117 -2.9092,-16.89171 14.5461,-4.22287 37.8199,1.40766 50.9113,12.66883 13.0915,11.26107 49.4568,32.37575 80.0037,46.45224 29.0921,15.48404 53.8206,32.37574 53.8206,38.00628 0,7.0383 8.7276,11.26117 20.3645,11.26117 11.637,0 30.5469,8.44585 40.7292,18.29936 10.1822,9.85351 61.0936,49.26756 113.4596,87.27396 110.5504,80.2356 139.6427,105.5732 280.74,240.7069 225.4648,216.7771 401.4727,451.8535 542.5701,727.7516 62.5482,121.0573 138.188,301.2357 165.8256,396.9555 93.0951,318.1273 117.8235,480.0063 119.2782,784.0572 1.4546,273.0829 -13.0916,392.7326 -78.549,658.7771 -72.7307,298.4204 -187.645,554.6115 -368.0167,823.4713 -56.7298,85.8662 -113.4597,164.6943 -125.0966,175.9555 -11.6369,11.261 -52.366,59.1209 -88.7313,106.9808 -146.9157,184.4013 -478.5671,457.4841 -750.5795,615.1402 -135.2787,78.828 -363.6527,185.8089 -484.3855,228.0382 -155.6434,53.4904 -231.2832,76.0128 -325.8329,97.1273 -55.2752,12.6689 -114.9143,26.7453 -130.9151,30.9682 -16.0007,2.8153 -117.8235,19.7071 -225.4647,33.7834 -245.8293,35.1912 -589.1176,35.1912 -829.1285,0 z"
       id="path69"
       style="fill:#800080;stroke-width:1.43093" />
    <path
       d="m 4202.0596,4404.0438 c -11.7413,-3.8653 -26.4176,-14.1724 -32.2882,-21.9028 -13.2088,-16.7493 -16.1441,-846.4795 -2.9353,-876.1127 10.2736,-24.4796 80.7203,-27.0564 105.6703,-5.1536 11.7412,10.3073 17.6118,81.1693 17.6118,235.7774 0,260.257 1.4675,265.4105 120.3467,274.4294 70.4469,5.1535 85.1233,1.2884 113.0085,-24.4796 29.3529,-27.0565 30.8205,-42.5172 30.8205,-249.9498 0,-230.6238 5.8706,-251.2382 66.044,-251.2382 60.1733,0 66.044,20.6144 66.044,251.2382 0,119.8213 -5.8707,238.3541 -13.2088,260.257 -32.2882,97.9185 -155.5702,140.4357 -303.8022,104.3605 l -79.2527,-19.3261 v 152.0313 c 0,137.8589 -2.9353,153.3198 -27.8852,166.2037 -16.1441,6.442 -30.8206,12.884 -33.7559,11.5957 -2.9353,0 -14.6764,-3.8652 -26.4175,-7.7304 z"
       id="path71"
       style="fill:#800080;stroke-width:1.3751" />
    <path
       d="m 2870.9069,4304.8368 c -36.691,-27.0563 -38.1586,-33.4983 -22.0147,-64.42 20.5471,-39.9404 48.4323,-51.5359 96.8646,-41.2288 41.094,9.0188 63.1087,64.42 36.691,94.0533 -39.6263,41.2288 -68.9792,43.8056 -111.5409,11.5955 z"
       id="path73"
       style="fill:#800080;stroke-width:1.3751" />
    <path
       d="m 3226.0766,4279.0689 c -19.0793,-11.5956 -29.3529,-38.6521 -33.7557,-90.188 -5.8706,-63.1318 -11.7411,-76.0158 -41.094,-85.0346 -44.0293,-15.4607 -48.4323,-70.862 -5.8706,-90.188 27.8852,-12.884 29.3528,-27.0564 29.3528,-203.5674 0,-212.5861 13.2088,-273.141 68.9793,-311.793 76.3174,-52.8244 261.2405,-18.0376 234.8229,42.5172 -7.3382,15.4608 -27.8852,21.9028 -74.8498,21.9028 -51.3675,0 -70.4469,6.442 -82.188,24.4797 -8.8059,14.1724 -14.6764,112.0908 -14.6764,225.4702 v 200.9905 h 80.7203 c 73.3822,0 80.7205,2.5767 89.5263,30.9216 13.2088,48.9593 -2.9353,59.2664 -90.9939,59.2664 h -79.2527 v 81.1693 c 0,72.1505 -16.1441,112.0909 -44.0293,112.0909 -4.403,0 -20.5471,-7.7304 -36.6912,-18.0376 z"
       id="path75"
       style="fill:#800080;stroke-width:1.3751" />
    <path
       d="m 1343.0901,4268.7616 c -29.3528,-25.768 -20.5469,-60.5548 16.1441,-68.2852 17.6118,-3.8651 70.4469,-7.7304 117.4115,-9.0188 l 85.1233,-3.8652 -1.4676,-333.6958 c 0,-234.4891 4.4029,-337.5611 16.1441,-350.4451 8.8058,-10.3072 38.1587,-18.0376 64.5762,-18.0376 26.4177,0 55.7706,7.7304 64.5764,18.0376 11.7411,12.884 16.1441,115.956 16.1441,350.4451 l -1.4677,333.6958 85.1233,3.8652 c 120.3468,3.8652 151.1672,12.884 151.1672,38.6521 0,50.2476 -26.4175,54.1127 -315.5433,54.1127 -198.1318,0 -286.1904,-5.1535 -297.9316,-15.4608 z"
       id="path77"
       style="fill:#800080;stroke-width:1.3751" />
    <path
       d="m 3741.2195,4103.8463 c -60.1734,-16.7491 -137.9585,-86.3228 -171.7142,-153.3196 -41.094,-82.4577 -39.6265,-251.2383 4.4028,-325.9655 44.0293,-78.5924 68.9792,-100.4953 140.8939,-127.5516 85.1233,-32.2101 192.2612,-30.9217 262.7081,2.5767 76.3175,36.0752 98.3322,57.978 88.0586,81.1693 -16.1441,34.7868 -49.8998,37.3636 -96.8645,9.0188 -29.3528,-18.0377 -64.5763,-27.0565 -114.4761,-27.0565 -61.6411,0 -79.2528,6.442 -115.9439,39.9405 -42.5616,38.652 -42.5616,39.9404 -42.5616,191.9717 0,141.7242 2.9353,154.6082 33.7557,184.2414 61.6411,57.978 113.0086,68.2852 201.0671,41.2288 85.1235,-24.4797 129.1528,-19.326 121.8145,14.1724 -8.8058,39.9404 -74.8498,68.2853 -173.1819,74.7273 -52.8352,3.8651 -114.4762,1.2883 -137.9585,-5.1537 z"
       id="path79"
       style="fill:#800080;stroke-width:1.3751" />
    <path
       d="m 1897.8594,4084.5203 c -14.6764,-15.4608 -14.6764,-24.4796 -2.9353,-34.7868 10.2735,-9.0188 17.6116,-33.4985 17.6116,-54.1129 0,-21.9028 10.2736,-56.6896 22.0147,-77.304 11.7412,-19.326 22.0146,-50.2476 22.0146,-66.9969 0,-18.0375 8.806,-50.2476 20.5471,-73.4387 10.2735,-23.1913 23.4824,-69.5738 29.3529,-101.7837 5.8706,-33.4985 13.3182,-70.6223 22.124,-74.4876 7.3381,-5.1536 16.0347,-38.8918 16.0347,-38.8918 0,-20.6144 10.2735,-46.3824 23.4823,-56.6896 48.4322,-43.8057 137.9585,-11.5956 137.9585,48.9592 0,15.4608 5.8706,33.4985 14.6764,41.2289 7.3383,6.442 20.547,38.652 27.8852,69.5736 51.3676,208.721 86.591,262.8339 105.6704,164.9153 4.4029,-23.1912 16.1441,-55.4012 24.9499,-70.862 10.2736,-15.4608 17.6117,-41.2288 17.6117,-57.9781 0,-16.7492 10.2735,-46.3823 22.0146,-66.9968 11.7413,-19.326 22.0147,-48.9593 22.0147,-64.4201 0,-48.9592 41.094,-86.3228 90.994,-82.4576 51.3674,3.8652 58.7056,12.884 92.4614,119.8213 13.2088,42.5172 33.7559,103.0721 45.497,135.282 11.7411,32.2101 20.5471,70.8622 20.5471,85.0346 0,15.4607 10.2734,45.0939 22.0146,64.42 11.7411,20.6144 22.0147,52.8244 22.0147,70.8621 0,19.3259 10.2734,50.2476 22.0146,70.862 24.9499,42.5172 7.3381,69.5736 -45.497,69.5736 -39.6263,0 -71.9145,-54.1128 -93.9291,-154.608 -19.0794,-81.1693 -46.9646,-197.1254 -52.8353,-215.163 -2.9353,-9.0188 -13.2087,-16.7492 -23.4822,-16.7492 -17.6118,0 -27.8852,25.7679 -70.4469,173.9341 -8.8059,28.3448 -19.0794,60.5548 -24.9499,70.862 -5.8706,10.3073 -16.1441,42.5173 -24.95,70.8621 -11.7411,38.652 -26.4176,54.1129 -57.2381,63.1316 -51.3675,16.7492 -89.5263,-2.5767 -95.3968,-45.094 -2.9353,-16.7492 -14.6764,-48.9593 -26.4176,-72.1504 -11.7411,-21.9028 -20.547,-51.5361 -20.547,-65.7085 0,-14.1724 -10.2735,-42.5172 -22.0146,-61.8433 -11.7411,-20.6144 -22.0147,-51.5359 -22.0147,-69.5736 0,-30.9216 -23.4823,-64.42 -45.497,-64.42 -4.4028,0 -13.2088,33.4984 -19.0793,73.4388 -5.8706,39.9404 -14.6764,78.5925 -22.0147,86.3229 -5.8705,7.7304 -16.1441,39.9404 -20.5469,72.1505 -4.403,32.2099 -19.0794,79.8808 -32.2882,106.9372 -19.0794,41.2288 -27.8852,47.6708 -71.9145,47.6708 -26.4176,0 -57.2381,-9.0187 -67.5116,-19.326 z"
       id="path81"
       sodipodi:nodetypes="csscscccscsscccscsccsscscscsscsccccscssscscsc"
       style="fill:#800080;stroke-width:1.3751" />
    <path
       d="m 2870.9069,4094.8276 c -26.4175,-9.0188 -27.8852,-570.7617 -1.4676,-593.9529 27.8852,-24.4797 96.8644,-19.326 114.4762,9.0188 22.0147,37.3637 19.0794,559.166 -2.9353,578.4921 -17.6117,15.4607 -76.3174,19.326 -110.0733,6.442 z"
       id="path83"
       style="fill:#800080;stroke-width:1.3751" />
    <path
       d="m 1821.5419,3393.9374 c -23.4822,-11.5956 -22.0147,-18.0376 16.1441,-79.8808 23.4823,-37.3637 55.7704,-87.6113 71.9145,-112.091 17.6118,-24.4795 41.094,-61.8432 54.3028,-83.746 11.7411,-20.6144 41.094,-70.862 66.0439,-109.5141 41.094,-66.9969 44.0293,-78.5924 44.0293,-228.0469 0,-157.1849 0,-158.4733 36.6912,-166.2037 20.5469,-3.8653 52.8351,-3.8653 73.3822,0 l 36.691,7.7304 v 164.9153 163.6269 l 52.8351,77.304 c 29.3529,42.5173 58.7058,88.8997 66.044,103.0721 7.3382,14.1724 24.9499,43.8056 39.6264,64.42 14.6764,21.9029 48.4323,72.1505 73.3822,113.3794 l 46.9646,74.7272 -35.2235,12.884 c -64.5763,25.7681 -85.1233,3.8652 -239.2258,-256.3918 -55.7705,-92.7648 -55.7705,-92.7648 -80.7205,-64.42 -13.2088,16.7492 -38.1587,52.8245 -55.7704,81.1693 -74.8499,127.5516 -117.4114,191.9717 -145.2967,220.3165 -32.2881,32.2101 -79.2527,38.6521 -121.8144,16.7492 z"
       id="path85"
       style="fill:#800080;stroke-width:1.3751" />
    <path
       d="m 2697.725,3218.7149 c -127.6849,-56.6896 -170.2466,-132.7054 -170.2466,-300.1974 0,-143.0126 24.9499,-202.279 111.5409,-269.2758 55.7704,-42.5173 158.5055,-60.5549 258.3052,-46.3825 63.1087,9.0188 189.326,95.3417 189.326,128.8402 0,9.0187 10.2735,33.4984 22.0146,52.8243 13.2089,23.1913 22.0147,73.4389 22.0147,131.417 0,197.1253 -124.7496,325.9654 -311.1403,323.3886 -42.5617,-1.2884 -96.8646,-10.3072 -121.8145,-20.6144 z m 237.7583,-115.9561 c 39.6264,-45.0941 41.094,-52.8245 41.094,-194.5485 l -1.4676,-148.1661 -57.2381,-43.8057 c -67.5117,-50.2476 -113.0086,-54.1128 -176.1173,-10.3072 -73.3822,48.9592 -101.2674,188.1065 -64.5762,328.5423 22.0146,85.0344 61.6409,115.9561 146.7642,115.9561 63.1087,0 74.8499,-3.8653 111.541,-47.6709 z"
       id="path87"
       style="fill:#800080;stroke-width:1.3751" />
    <path
       d="m 4099.3245,3208.4076 c -33.7558,-32.2099 -35.2235,-32.2099 -61.641,-6.442 -36.6911,34.7869 -82.188,33.4985 -92.4615,-2.5767 -4.403,-16.7492 -5.8706,-154.6082 -4.403,-306.6395 4.403,-256.3917 5.8705,-277.0061 30.8206,-280.8714 14.6764,-2.5767 42.5616,-1.2884 63.1086,2.5769 l 35.2234,7.7304 v 212.5861 c 0,127.5517 5.8707,224.1818 16.1441,242.2194 22.0146,42.5172 74.8499,65.7085 121.8144,55.4012 48.4323,-10.3072 96.8645,11.5956 96.8645,42.5172 0,66.9969 -143.829,91.4765 -205.4701,33.4984 z"
       id="path89"
       style="fill:#800080;stroke-width:1.3751" />
    <path
       d="m 3251.0266,3212.2729 c -11.7412,-10.3073 -17.6117,-85.0344 -17.6117,-249.9498 v -234.489 l 48.4323,-55.4012 c 64.5762,-76.0157 170.2466,-96.6301 294.9962,-56.6896 41.094,12.884 66.0439,14.1724 89.5263,3.8651 19.0794,-7.7304 51.3675,-10.3071 71.9145,-5.1535 l 38.1587,7.7304 v 287.3134 c 0,306.6393 -2.9353,318.235 -73.3822,318.235 -68.9792,0 -73.3821,-14.1724 -73.3821,-266.699 v -235.7774 l -39.6264,-14.1724 c -46.9646,-15.4608 -118.8791,-18.0376 -161.4408,-6.442 -45.4968,12.8841 -63.1086,101.7837 -63.1086,314.3699 0,186.8181 -7.3383,208.7209 -66.044,208.7209 -17.6116,0 -38.1587,-6.442 -48.4322,-15.4608 z"
       id="path91"
       style="fill:#800080;stroke-width:1.3751" />
    <path
       d="m 958.56756,2587.3985 c -123.28204,-42.5174 -199.5995,-141.7242 -187.85835,-240.9311 11.74114,-88.8997 61.64102,-136.5704 212.8083,-200.9905 148.23199,-64.42 179.05239,-91.4764 180.52009,-157.1849 0,-36.0752 -10.2735,-56.6897 -45.4969,-86.3228 -38.1588,-33.4985 -55.7704,-39.9405 -117.4115,-39.9405 -76.31743,0 -117.41145,12.884 -167.31132,52.8244 -39.62638,32.21 -95.39683,19.326 -95.39683,-20.6144 0,-60.5548 133.55555,-122.398 264.17585,-122.398 101.2674,0 168.779,23.1911 226.0171,76.0156 66.0439,60.5548 107.138,191.9717 67.5115,213.8745 -7.3381,3.8652 -14.6764,18.0377 -14.6764,30.9216 0,11.5957 -22.0146,39.9405 -46.9645,61.8433 -49.9,39.9404 -80.7205,56.6897 -208.4054,109.514 -38.15876,15.4609 -79.25279,41.2289 -90.99392,55.4014 -29.35288,36.0752 -24.94995,100.4952 10.27349,140.4356 26.41759,29.6332 39.62638,33.4985 123.28203,33.4985 63.1087,0 96.8645,-6.4421 110.0732,-19.3261 41.0941,-43.8056 111.541,-3.8651 77.7852,43.8057 -38.1587,55.4013 -217.2112,96.6301 -297.93164,69.5737 z"
       id="path93"
       style="fill:#800080;stroke-width:1.3751" />
    <path
       d="m 1501.5956,2570.6492 c -22.0146,-19.326 -29.3528,-42.5172 -29.3528,-90.1881 0,-56.6896 -4.403,-66.9968 -35.2234,-77.304 -19.0794,-6.442 -39.6265,-18.0376 -45.497,-24.4797 -14.6764,-23.1911 5.8705,-63.1316 38.1587,-72.1503 26.4176,-7.7304 27.8852,-20.6145 27.8852,-203.5674 0,-251.2382 10.2735,-282.1598 96.8645,-319.5235 58.7057,-24.4796 74.8498,-25.768 123.2821,-12.884 111.5408,28.3449 118.8791,91.4765 10.2734,91.4765 -35.2233,0 -70.4468,6.442 -80.7203,15.4608 -11.7411,10.3071 -17.6118,79.8809 -17.6118,225.4702 v 210.0094 h 73.3822 c 58.7058,0 74.8499,5.1535 88.0586,27.0564 26.4176,41.2288 -5.8706,63.1316 -89.5262,63.1316 h -71.9146 v 81.1693 c 0,106.9372 -30.8205,136.5705 -88.0586,86.3228 z"
       id="path95"
       style="fill:#800080;stroke-width:1.3751" />
    <path
       d="m 2065.1707,2398.0035 c -24.9499,-10.3073 -49.8999,-28.3448 -55.7704,-41.2288 -8.8058,-20.6145 -11.7412,-20.6145 -27.8852,7.7303 -13.2088,23.1912 -30.8206,32.2101 -61.6411,32.2101 h -44.0293 l -4.403,-277.0063 c -1.4675,-152.0313 0,-289.8901 4.403,-305.3509 5.8706,-21.9028 19.0794,-29.6333 49.8999,-29.6333 23.4823,0 48.4322,7.7305 57.2381,16.7492 8.8058,9.0188 17.6118,105.6489 20.547,230.6239 4.4029,208.7209 5.8706,215.1629 41.094,248.6613 29.3528,27.0564 45.4969,33.4984 83.6557,28.3448 74.8498,-11.5956 107.1379,1.2884 107.1379,43.8056 0,30.9217 -7.3381,38.6521 -54.3028,48.9593 -67.5115,16.7492 -60.1733,16.7492 -115.9438,-3.8652 z"
       id="path97"
       style="fill:#800080;stroke-width:1.3751" />
    <path
       d="m 2462.902,2404.4455 c -114.4761,-24.4797 -184.923,-105.6488 -211.3406,-246.0846 -41.094,-212.5862 57.2381,-356.8871 264.1759,-391.6739 60.1734,-9.0188 152.6348,16.7492 226.017,64.42 33.7559,21.9028 39.6264,33.4985 30.8206,60.5549 -11.7412,43.8056 -36.6912,43.8056 -88.0587,2.5768 -32.2881,-27.0565 -54.3027,-32.21 -124.7496,-32.21 -68.9792,0 -89.5263,5.1535 -113.0085,29.6332 -38.1588,36.0752 -64.5764,91.4764 -64.5764,131.4169 v 32.21 h 187.8584 c 126.2173,0 193.7288,5.1537 205.4701,15.4608 10.2734,9.0189 17.6116,38.6521 17.6116,68.2853 -2.9352,200.9906 -133.5555,306.6394 -330.2198,265.4106 z m 114.4762,-87.6113 c 66.044,-29.6332 82.1881,-52.8245 83.6558,-115.9561 v -55.4012 h -139.4262 c -124.7497,0 -139.4261,2.5767 -139.4261,23.1913 0,42.5172 58.7057,130.1285 99.7997,149.4544 49.9,24.4796 39.6264,24.4796 95.3968,-1.2884 z"
       id="path99"
       style="fill:#800080;stroke-width:1.3751" />
    <path
       d="m 3064.6359,2410.8875 c -7.3382,-2.5768 -30.8205,-9.0188 -51.3676,-12.884 -51.3674,-9.0188 -104.2027,-54.1129 -92.4614,-79.8809 8.8058,-20.6144 20.5469,-20.6144 146.7642,2.5769 99.7999,16.7491 165.8438,-30.9217 165.8438,-119.8214 0,-30.9216 -8.8058,-39.9404 -48.4323,-52.8245 -26.4175,-9.0187 -66.0439,-15.4607 -88.0586,-15.4607 -89.5262,0 -237.7582,-104.3605 -253.9023,-179.0878 -11.7411,-51.5359 41.094,-131.4168 108.6056,-163.6269 67.5117,-30.9216 157.0378,-29.6332 227.4848,6.442 l 55.7704,27.0564 30.8206,-25.768 c 41.094,-33.4984 130.6202,-34.7868 162.9083,-2.5768 36.6912,34.7869 30.8205,54.1129 -17.6116,61.8433 l -41.0941,7.7304 -7.3382,216.4514 c -7.3383,230.6237 -14.6764,258.9686 -89.5263,302.7742 -32.2881,18.0376 -179.0524,37.3636 -208.4053,27.0564 z m 168.779,-410.9999 c 0,-57.9781 -5.8706,-73.4389 -41.094,-103.0721 -32.2882,-28.3448 -55.7705,-34.7868 -110.0733,-34.7868 -63.1086,0 -71.9146,3.8652 -85.1233,36.0752 -35.2234,81.1693 54.3027,164.9153 181.9878,168.7806 l 54.3028,1.2884 z"
       id="path101"
       style="fill:#800080;stroke-width:1.3751" />
    <path
       d="m 3761.7665,2403.1571 c -27.8852,-5.1536 -52.8351,-16.7493 -55.7705,-24.4797 -7.3381,-20.6144 -42.5616,-16.7491 -52.8351,5.1537 -10.2736,23.1912 -68.9792,25.768 -93.9292,3.8651 -22.0146,-19.3259 -24.9499,-541.1284 -2.9352,-578.492 17.6116,-28.3448 86.5908,-33.4984 114.4762,-9.0187 11.7411,10.3071 17.6116,83.746 17.6116,240.9309 0,124.9749 5.8706,234.489 13.2088,244.7962 8.8059,11.5956 39.6264,19.326 83.6557,19.326 101.2673,1.2885 108.6056,-15.4608 108.6056,-271.8526 0,-114.6677 4.403,-216.4514 8.8058,-228.047 10.2736,-24.4796 80.7205,-27.0564 105.6704,-5.1535 11.7411,10.3071 17.6117,83.746 17.6117,243.5077 0,221.605 1.4677,229.3354 32.2882,248.6614 17.6118,11.5956 57.2381,20.6145 86.591,20.6145 77.785,0 86.5909,-27.0565 86.5909,-280.8714 0,-150.743 5.8706,-221.6051 17.6117,-231.9122 24.95,-21.9029 95.3969,-19.3261 105.6703,5.1535 14.6765,33.4984 10.2735,490.8808 -5.8706,525.6676 -23.4822,54.1129 -82.188,78.5925 -187.8582,77.3041 -61.6411,-1.2884 -101.2674,-9.0188 -118.8792,-23.1912 -32.2882,-25.7681 -58.7057,-25.7681 -90.9939,0 -30.8205,24.4796 -120.3468,33.4984 -189.326,18.0376 z"
       id="path103"
       style="fill:#800080;stroke-width:1.3751" />
    <path
       d="m 4674.6407,2404.4455 c -54.3028,-12.884 -164.3761,-106.9373 -164.3761,-140.4358 0,-12.8839 -8.8058,-30.9215 -17.6116,-38.6519 -29.3529,-25.7681 -24.95,-243.5079 5.8705,-298.9091 55.7704,-103.0721 199.5995,-175.2225 314.0757,-158.4733 63.1087,9.0188 98.3322,23.1912 158.5055,64.42 77.7851,54.1129 14.6764,109.5141 -66.044,56.6897 -29.3528,-19.326 -63.1087,-27.0564 -120.3468,-27.0564 -101.2673,0 -152.6348,41.2288 -159.9731,128.8401 l -4.4029,57.978 181.9878,3.8653 c 104.2027,1.2884 190.7937,9.0187 202.5348,18.0375 29.3529,20.6144 23.4822,144.3009 -10.2735,210.0094 -54.3029,104.3605 -181.9878,153.3197 -319.9463,123.6865 z m 142.3614,-85.0344 c 29.3529,-12.884 46.9646,-34.787 60.1734,-76.0158 29.3529,-91.4764 20.547,-97.9184 -124.7496,-97.9184 h -124.7498 v 56.6896 c 0,50.2477 5.8706,61.8432 54.3028,96.6302 63.1087,45.0939 77.7851,47.6707 135.0232,20.6144 z"
       id="path105"
       style="fill:#800080;stroke-width:1.3751" />
    <path
       d="m 5321.8715,2398.0035 c -24.9499,-10.3073 -51.3675,-32.2101 -57.2381,-48.9592 l -11.7412,-29.6332 -7.3382,30.9215 c -13.2088,42.5172 -52.8351,63.1317 -85.1233,45.0941 -23.4823,-12.884 -26.4176,-43.8057 -30.8206,-295.0438 -2.9353,-195.837 1.4677,-286.025 13.2088,-297.6207 20.5471,-23.1911 92.4616,-23.1911 113.0087,-1.2884 8.8058,9.0188 17.6116,108.2258 20.5469,239.6426 4.403,217.7398 5.8706,222.8933 39.6265,247.373 22.0146,15.4608 54.3027,24.4797 80.7203,23.1912 24.9499,-1.2884 55.7704,-1.2884 68.9792,0 30.8205,1.2885 46.9646,54.1128 23.4823,74.7272 -29.3529,24.4797 -115.9439,30.9217 -167.3113,11.5957 z"
       id="path107"
       style="fill:#800080;stroke-width:1.3751" />
    <path
       d="m 1870,1150 c 0,-5 9,-10 20,-10 11,0 20,5 20,10 0,6 -9,10 -20,10 -11,0 -20,-4 -20,-10 z"
       id="path109"
       style="fill:#800080" />
    <path
       d="m 1920,1120 c 0,-5 7,-10 15,-10 8,0 15,5 15,10 0,6 -7,10 -15,10 -8,0 -15,-4 -15,-10 z"
       id="path111"
       style="fill:#800080" />
    <path
       d="m 3920,1120 c 0,-5 9,-10 19,-10 11,0 23,5 26,10 4,6 -5,10 -19,10 -14,0 -26,-4 -26,-10 z"
       id="path113"
       style="fill:#800080" />
    <path
       d="m 3865,1090 c -4,-6 5,-10 19,-10 14,0 26,5 26,10 0,6 -9,10 -19,10 -11,0 -23,-4 -26,-10 z"
       id="path115"
       style="fill:#800080" />
  </g>
</svg>
