<?xml version="1.0" encoding="UTF-8" standalone="no"?>
<svg
   version="1.0"
   width="600.000000pt"
   height="600.000000pt"
   viewBox="0 0 600.000000 600.000000"
   preserveAspectRatio="xMidYMid meet"
   id="svg119"
   sodipodi:docname="logo1.svg"
   inkscape:version="1.1.2 (b8e25be833, 2022-02-05)"
   xmlns:inkscape="http://www.inkscape.org/namespaces/inkscape"
   xmlns:sodipodi="http://sodipodi.sourceforge.net/DTD/sodipodi-0.dtd"
   xmlns="http://www.w3.org/2000/svg"
   xmlns:svg="http://www.w3.org/2000/svg">
  <defs
     id="defs123" />
  <sodipodi:namedview
     id="namedview121"
     pagecolor="#ffffff"
     bordercolor="#666666"
     borderopacity="1.0"
     inkscape:pageshadow="2"
     inkscape:pageopacity="0.42745098"
     inkscape:pagecheckerboard="0"
     inkscape:document-units="pt"
     showgrid="false"
     inkscape:zoom="0.97375"
     inkscape:cx="86.77792"
     inkscape:cy="478.04878"
     inkscape:window-width="1920"
     inkscape:window-height="1001"
     inkscape:window-x="-9"
     inkscape:window-y="-9"
     inkscape:window-maximized="1"
     inkscape:current-layer="g117" />
  <metadata
     id="metadata67">
Created by potrace 1.10, written by Peter Selinger 2001-2011
</metadata>
  <g
     transform="translate(0.000000,600.000000) scale(0.100000,-0.100000)"
     fill="#444444"
     stroke="none"
     id="g117">
    <path
       d="M2650 4790 c-603 -91 -1126 -417 -1442 -899 -62 -93 -134 -232 -178 -341 -12 -30 -26 -64 -31 -75 -24 -54 -61 -203 -89 -355 -18 -96 -24 -390 -11 -495 45 -365 166 -668 385 -960 115 -154 379 -398 499 -460 20 -11 37 -23 37 -27 0 -5 10 -8 21 -8 21 0 21 1 -4 24 -14 13 -30 26 -36 27 -59 22 -401 377 -401 418 0 6 -4 11 -8 11 -5 0 -14 10 -21 23 -6 12 -20 36 -31 52 -25 39 -120 231 -120 243 0 5 -7 23 -15 38 -8 16 -15 39 -15 51 0 12 -4 24 -9 27 -5 4 -12 25 -16 49 -4 23 -12 51 -17 61 -6 11 -15 47 -20 80 -24 161 -28 242 -22 390 11 273 61 483 167 701 38 78 134 245 147 255 4 3 30 37 59 75 109 144 315 325 486 427 136 82 351 172 485 203 36 9 81 20 100 25 80 22 216 34 390 34 240 1 389 -22 610 -94 76 -24 111 -39 239 -97 43 -20 190 -108 262 -158 227 -158 434 -408 568 -686 22 -48 41 -90 41 -94 0 -4 6 -21 14 -38 13 -28 38 -112 66 -217 39 -144 51 -466 25 -639 -31 -206 -119 -460 -218 -626 -114 -191 -322 -415 -487 -525 -13 -8 -30 -22 -39 -31 -9 -9 -25 -19 -36 -24 -19 -8 -19 -8 -2 -12 10 -3 26 1 35 9 9 8 34 23 55 33 20 11 37 23 37 27 0 5 6 8 14 8 8 0 21 6 28 13 7 7 42 35 78 62 76 57 96 75 193 171 155 154 276 321 373 517 43 86 95 214 114 282 64 226 81 341 82 557 1 194 -9 279 -54 468 -50 212 -129 394 -253 585 -39 61 -78 117 -86 125 -8 8 -36 42 -61 76 -101 131 -329 325 -516 437 -93 56 -250 132 -333 162 -107 38 -159 54 -224 69 -38 9 -79 19 -90 22 -11 2 -81 14 -155 24 -169 25 -405 25 -570 0z"
       id="path69"
       style="fill:#800080" />
    <path
       d="M3730 4013 c-8 -3 -18 -11 -22 -17 -9 -13 -11 -657 -2 -680 7 -19 55 -21 72 -4 8 8 12 63 12 183 0 202 1 206 82 213 48 4 58 1 77 -19 20 -21 21 -33 21 -194 0 -179 4 -195 45 -195 41 0 45 16 45 195 0 93 -4 185 -9 202 -22 76 -106 109 -207 81 l-54 -15 0 118 c0 107 -2 119 -19 129 -11 5 -21 10 -23 9 -2 0 -10 -3 -18 -6z"
       id="path71"
       style="fill:#800080" />
    <path
       d="M2823 3936 c-25 -21 -26 -26 -15 -50 14 -31 33 -40 66 -32 28 7 43 50 25 73 -27 32 -47 34 -76 9z"
       id="path73"
       style="fill:#800080" />
    <path
       d="M3065 3916 c-13 -9 -20 -30 -23 -70 -4 -49 -8 -59 -28 -66 -30 -12 -33 -55 -4 -70 19 -10 20 -21 20 -158 0 -165 9 -212 47 -242 52 -41 178 -14 160 33 -5 12 -19 17 -51 17 -35 0 -48 5 -56 19 -6 11 -10 87 -10 175 l0 156 55 0 c50 0 55 2 61 24 9 38 -2 46 -62 46 l-54 0 0 63 c0 56 -11 87 -30 87 -3 0 -14 -6 -25 -14z"
       id="path75"
       style="fill:#800080" />
    <path
       d="M1782 3908 c-20 -20 -14 -47 11 -53 12 -3 48 -6 80 -7 l58 -3 -1 -259 c0 -182 3 -262 11 -272 6 -8 26 -14 44 -14 18 0 38 6 44 14 8 10 11 90 11 272 l-1 259 58 3 c82 3 103 10 103 30 0 39 -18 42 -215 42 -135 0 -195 -4 -203 -12z"
       id="path77"
       style="fill:#800080" />
    <path
       d="M3416 3780 c-41 -13 -94 -67 -117 -119 -28 -64 -27 -195 3 -253 30 -61 47 -78 96 -99 58 -25 131 -24 179 2 52 28 67 45 60 63 -11 27 -34 29 -66 7 -20 -14 -44 -21 -78 -21 -42 0 -54 5 -79 31 -29 30 -29 31 -29 149 0 110 2 120 23 143 42 45 77 53 137 32 58 -19 88 -15 83 11 -6 31 -51 53 -118 58 -36 3 -78 1 -94 -4z"
       id="path79"
       style="fill:#800080" />
    <path
       d="m 2160,3765 c -10,-12 -10,-19 -2,-27 7,-7 12,-26 12,-42 0,-17 7,-44 15,-60 8,-15 15,-39 15,-52 0,-14 6,-39 14,-57 7,-18 16,-54 20,-79 4,-26 9.0745,-54.8139 15.0745,-57.8139 5,-4 10.9255,-30.1861 10.9255,-30.1861 0,-16 7,-36 16,-44 33,-34 94,-9 94,38 0,12 4,26 10,32 5,5 14,30 19,54 35,162 59,204 72,128 3,-18 11,-43 17,-55 7,-12 12,-32 12,-45 0,-13 7,-36 15,-52 8,-15 15,-38 15,-50 0,-38 28,-67 62,-64 35,3 40,10 63,93 9,33 23,80 31,105 8,25 14,55 14,66 0,12 7,35 15,50 8,16 15,41 15,55 0,15 7,39 15,55 17,33 5,54 -31,54 -27,0 -49,-42 -64,-120 -13,-63 -32,-153 -36,-167 -2,-7 -9,-13 -16,-13 -12,0 -19,20 -48,135 -6,22 -13,47 -17,55 -4,8 -11,33 -17,55 -8,30 -18,42 -39,49 -35,13 -61,-2 -65,-35 -2,-13 -10,-38 -18,-56 -8,-17 -14,-40 -14,-51 0,-11 -7,-33 -15,-48 -8,-16 -15,-40 -15,-54 0,-24 -16,-50 -31,-50 -3,0 -9,26 -13,57 -4,31 -10,61 -15,67 -4,6 -11,31 -14,56 -3,25 -13,62 -22,83 -13,32 -19,37 -49,37 -18,0 -39,-7 -46,-15 z"
       id="path81"
       sodipodi:nodetypes="csscscccscsscccscsccsscscscsscsccccscssscscsc"
       style="fill:#800080" />
    <path
       d="M2823 3773 c-18 -7 -19 -443 -1 -461 19 -19 66 -15 78 7 15 29 13 434 -2 449 -12 12 -52 15 -75 5z"
       id="path83"
       style="fill:#800080" />
    <path
       d="M2108 3229 c-16 -9 -15 -14 11 -62 16 -29 38 -68 49 -87 12 -19 28 -48 37 -65 8 -16 28 -55 45 -85 28 -52 30 -61 30 -177 0 -122 0 -123 25 -129 14 -3 36 -3 50 0 l25 6 0 128 0 127 36 60 c20 33 40 69 45 80 5 11 17 34 27 50 10 17 33 56 50 88 l32 58 -24 10 c-44 20 -58 3 -163 -199 -38 -72 -38 -72 -55 -50 -9 13 -26 41 -38 63 -51 99 -80 149 -99 171 -22 25 -54 30 -83 13z"
       id="path85"
       style="fill:#800080" />
    <path
       d="M2705 3093 c-87 -44 -116 -103 -116 -233 0 -111 17 -157 76 -209 38 -33 108 -47 176 -36 43 7 129 74 129 100 0 7 7 26 15 41 9 18 15 57 15 102 0 153 -85 253 -212 251 -29 -1 -66 -8 -83 -16z m162 -90 c27 -35 28 -41 28 -151 l-1 -115 -39 -34 c-46 -39 -77 -42 -120 -8 -50 38 -69 146 -44 255 15 66 42 90 100 90 43 0 51 -3 76 -37z"
       id="path87"
       style="fill:#800080" />
    <path
       d="M3660 3085 c-23 -25 -24 -25 -42 -5 -25 27 -56 26 -63 -2 -3 -13 -4 -120 -3 -238 3 -199 4 -215 21 -218 10 -2 29 -1 43 2 l24 6 0 165 c0 99 4 174 11 188 15 33 51 51 83 43 33 -8 66 9 66 33 0 52 -98 71 -140 26z"
       id="path89"
       style="fill:#800080" />
    <path
       d="M3082 3088 c-8 -8 -12 -66 -12 -194 l0 -182 33 -43 c44 -59 116 -75 201 -44 28 10 45 11 61 3 13 -6 35 -8 49 -4 l26 6 0 223 c0 238 -2 247 -50 247 -47 0 -50 -11 -50 -207 l0 -183 -27 -11 c-32 -12 -81 -14 -110 -5 -31 10 -43 79 -43 244 0 145 -5 162 -45 162 -12 0 -26 -5 -33 -12z"
       id="path91"
       style="fill:#800080" />
    <path
       d="M1520 2603 c-84 -33 -136 -110 -128 -187 8 -69 42 -106 145 -156 101 -50 122 -71 123 -122 0 -28 -7 -44 -31 -67 -26 -26 -38 -31 -80 -31 -52 0 -80 10 -114 41 -27 25 -65 15 -65 -16 0 -47 91 -95 180 -95 69 0 115 18 154 59 45 47 73 149 46 166 -5 3 -10 14 -10 24 0 9 -15 31 -32 48 -34 31 -55 44 -142 85 -26 12 -54 32 -62 43 -20 28 -17 78 7 109 18 23 27 26 84 26 43 0 66 -5 75 -15 28 -34 76 -3 53 34 -26 43 -148 75 -203 54z"
       id="path93"
       style="fill:#800080" />
    <path
       d="M1890 2590 c-15 -15 -20 -33 -20 -70 0 -44 -3 -52 -24 -60 -13 -5 -27 -14 -31 -19 -10 -18 4 -49 26 -56 18 -6 19 -16 19 -158 0 -195 7 -219 66 -248 40 -19 51 -20 84 -10 76 22 81 71 7 71 -24 0 -48 5 -55 12 -8 8 -12 62 -12 175 l0 163 50 0 c40 0 51 4 60 21 18 32 -4 49 -61 49 l-49 0 0 63 c0 83 -21 106 -60 67z"
       id="path95"
       style="fill:#800080" />
    <path
       d="M2274 2456 c-17 -8 -34 -22 -38 -32 -6 -16 -8 -16 -19 6 -9 18 -21 25 -42 25 l-30 0 -3 -215 c-1 -118 0 -225 3 -237 4 -17 13 -23 34 -23 16 0 33 6 39 13 6 7 12 82 14 179 3 162 4 167 28 193 20 21 31 26 57 22 51 -9 73 1 73 34 0 24 -5 30 -37 38 -46 13 -41 13 -79 -3z"
       id="path97"
       style="fill:#800080" />
    <path
       d="M2545 2461 c-78 -19 -126 -82 -144 -191 -28 -165 39 -277 180 -304 41 -7 104 13 154 50 23 17 27 26 21 47 -8 34 -25 34 -60 2 -22 -21 -37 -25 -85 -25 -47 0 -61 4 -77 23 -26 28 -44 71 -44 102 l0 25 128 0 c86 0 132 4 140 12 7 7 12 30 12 53 -2 156 -91 238 -225 206z m78 -68 c45 -23 56 -41 57 -90 l0 -43 -95 0 c-85 0 -95 2 -95 18 0 33 40 101 68 116 34 19 27 19 65 -1z"
       id="path99"
       style="fill:#800080" />
    <path
       d="M2955 2466 c-5 -2 -21 -7 -35 -10 -35 -7 -71 -42 -63 -62 6 -16 14 -16 100 2 68 13 113 -24 113 -93 0 -24 -6 -31 -33 -41 -18 -7 -45 -12 -60 -12 -61 0 -162 -81 -173 -139 -8 -40 28 -102 74 -127 46 -24 107 -23 155 5 l38 21 21 -20 c28 -26 89 -27 111 -2 25 27 21 42 -12 48 l-28 6 -5 168 c-5 179 -10 201 -61 235 -22 14 -122 29 -142 21z m115 -319 c0 -45 -4 -57 -28 -80 -22 -22 -38 -27 -75 -27 -43 0 -49 3 -58 28 -24 63 37 128 124 131 l37 1 0 -53z"
       id="path101"
       style="fill:#800080" />
    <path
       d="M3430 2460 c-19 -4 -36 -13 -38 -19 -5 -16 -29 -13 -36 4 -7 18 -47 20 -64 3 -15 -15 -17 -420 -2 -449 12 -22 59 -26 78 -7 8 8 12 65 12 187 0 97 4 182 9 190 6 9 27 15 57 15 69 1 74 -12 74 -211 0 -89 3 -168 6 -177 7 -19 55 -21 72 -4 8 8 12 65 12 189 0 172 1 178 22 193 12 9 39 16 59 16 53 0 59 -21 59 -218 0 -117 4 -172 12 -180 17 -17 65 -15 72 4 10 26 7 381 -4 408 -16 42 -56 61 -128 60 -42 -1 -69 -7 -81 -18 -22 -20 -40 -20 -62 0 -21 19 -82 26 -129 14z"
       id="path103"
       style="fill:#800080" />
    <path
       d="M4052 2461 c-37 -10 -112 -83 -112 -109 0 -10 -6 -24 -12 -30 -20 -20 -17 -189 4 -232 38 -80 136 -136 214 -123 43 7 67 18 108 50 53 42 10 85 -45 44 -20 -15 -43 -21 -82 -21 -69 0 -104 32 -109 100 l-3 45 124 3 c71 1 130 7 138 14 20 16 16 112 -7 163 -37 81 -124 119 -218 96z m97 -66 c20 -10 32 -27 41 -59 20 -71 14 -76 -85 -76 l-85 0 0 44 c0 39 4 48 37 75 43 35 53 37 92 16z"
       id="path105"
       style="fill:#800080" />
    <path
       d="M4493 2456 c-17 -8 -35 -25 -39 -38 l-8 -23 -5 24 c-9 33 -36 49 -58 35 -16 -10 -18 -34 -21 -229 -2 -152 1 -222 9 -231 14 -18 63 -18 77 -1 6 7 12 84 14 186 3 169 4 173 27 192 15 12 37 19 55 18 17 -1 38 -1 47 0 21 1 32 42 16 58 -20 19 -79 24 -114 9z"
       id="path107"
       style="fill:#800080" />
    <path
       d="M1870 1150 c0 -5 9 -10 20 -10 11 0 20 5 20 10 0 6 -9 10 -20 10 -11 0 -20 -4 -20 -10z"
       id="path109"
       style="fill:#800080" />
    <path
       d="M1920 1120 c0 -5 7 -10 15 -10 8 0 15 5 15 10 0 6 -7 10 -15 10 -8 0 -15 -4 -15 -10z"
       id="path111"
       style="fill:#800080" />
    <path
       d="M3920 1120 c0 -5 9 -10 19 -10 11 0 23 5 26 10 4 6 -5 10 -19 10 -14 0 -26 -4 -26 -10z"
       id="path113"
       style="fill:#800080" />
    <path
       d="M3865 1090 c-4 -6 5 -10 19 -10 14 0 26 5 26 10 0 6 -9 10 -19 10 -11 0 -23 -4 -26 -10z"
       id="path115"
       style="fill:#800080" />
  </g>
</svg>
