<?xml version="1.0" standalone="no"?>
<!DOCTYPE svg PUBLIC "-//W3C//DTD SVG 20010904//EN"
 "http://www.w3.org/TR/2001/REC-SVG-20010904/DTD/svg10.dtd">
<svg version="1.0" xmlns="http://www.w3.org/2000/svg"
 width="450.000000pt" height="450.000000pt" viewBox="0 0 450.000000 450.000000"
 preserveAspectRatio="xMidYMid meet">
<metadata>
Created by potrace 1.16, written by Peter Selinger 2001-2019
</metadata>
<g transform="translate(0.000000,450.000000) scale(0.100000,-0.100000)"
fill="#000000" stroke="none">
<path d="M1638 3584 c-185 -33 -343 -117 -478 -254 -343 -347 -345 -897 -5
-1246 120 -122 251 -199 422 -246 63 -17 105 -21 223 -21 128 0 155 3 233 27
314 95 528 308 623 622 24 79 27 106 27 234 0 175 -18 255 -92 405 -175 354
-564 550 -953 479z m328 -174 c43 -11 117 -39 164 -62 69 -33 102 -59 176
-132 78 -78 98 -106 137 -186 105 -217 103 -443 -5 -660 -61 -122 -188 -250
-308 -308 -221 -109 -440 -110 -660 -5 -81 39 -108 59 -186 137 -73 74 -99
107 -132 176 -108 219 -110 443 -5 660 39 80 59 108 137 186 74 73 107 99 176
132 166 82 342 103 506 62z"/>
<path d="M2457 2037 l-59 -60 88 -88 89 -89 62 62 63 63 -87 87 c-48 49 -90
87 -93 87 -3 -1 -31 -28 -63 -62z"/>
<path d="M2676 1821 c-59 -59 -77 -83 -72 -97 3 -11 187 -200 409 -422 468
-467 430 -442 529 -344 98 99 124 61 -349 534 -224 224 -415 408 -423 408 -9
0 -51 -35 -94 -79z"/>
</g>
</svg>
